<mxfile host="Electron" modified="2023-12-13T02:05:27.746Z" agent="Mozilla/5.0 (Windows NT 10.0; Win64; x64) AppleWebKit/537.36 (KHTML, like Gecko) draw.io/22.1.2 Chrome/114.0.5735.289 Electron/25.9.4 Safari/537.36" etag="1wjZuYbovtPk5w0xtQ8f" version="22.1.2" type="device">
  <diagram name="Page-1" id="wbO8fJ6J_zvAoPGpTCKr">
    <mxGraphModel dx="1206" dy="702" grid="0" gridSize="10" guides="1" tooltips="1" connect="1" arrows="1" fold="1" page="0" pageScale="1" pageWidth="850" pageHeight="1100" math="0" shadow="0">
      <root>
        <mxCell id="0" />
        <mxCell id="1" parent="0" />
        <mxCell id="jaMOgLZvB3yP1dYOfS98-2" value="Hệ thống" style="swimlane;whiteSpace=wrap;html=1;fontSize=14;" parent="1" vertex="1">
          <mxGeometry x="450" y="150" width="444" height="643" as="geometry" />
        </mxCell>
        <mxCell id="jaMOgLZvB3yP1dYOfS98-16" value="Hệ thống gọi trang giỏ hàng hiển thị các sản phẩm có trong giỏ hàng" style="rounded=1;whiteSpace=wrap;html=1;strokeWidth=1;fontSize=14;fontStyle=1" parent="jaMOgLZvB3yP1dYOfS98-2" vertex="1">
          <mxGeometry x="48.920000000000016" y="120" width="290" height="50" as="geometry" />
        </mxCell>
        <mxCell id="ZwuwxxH1zMdvEdTxROpJ-11" style="edgeStyle=orthogonalEdgeStyle;rounded=0;orthogonalLoop=1;jettySize=auto;html=1;" edge="1" parent="jaMOgLZvB3yP1dYOfS98-2" source="jaMOgLZvB3yP1dYOfS98-20" target="ZwuwxxH1zMdvEdTxROpJ-3">
          <mxGeometry relative="1" as="geometry" />
        </mxCell>
        <mxCell id="ZwuwxxH1zMdvEdTxROpJ-12" value="&lt;b&gt;Không&lt;/b&gt;" style="edgeLabel;html=1;align=center;verticalAlign=middle;resizable=0;points=[];" vertex="1" connectable="0" parent="ZwuwxxH1zMdvEdTxROpJ-11">
          <mxGeometry x="-0.1004" y="3" relative="1" as="geometry">
            <mxPoint x="-4" as="offset" />
          </mxGeometry>
        </mxCell>
        <mxCell id="ZwuwxxH1zMdvEdTxROpJ-16" style="edgeStyle=orthogonalEdgeStyle;rounded=0;orthogonalLoop=1;jettySize=auto;html=1;entryX=0.5;entryY=0;entryDx=0;entryDy=0;" edge="1" parent="jaMOgLZvB3yP1dYOfS98-2" source="jaMOgLZvB3yP1dYOfS98-20" target="ZwuwxxH1zMdvEdTxROpJ-15">
          <mxGeometry relative="1" as="geometry" />
        </mxCell>
        <mxCell id="ZwuwxxH1zMdvEdTxROpJ-19" value="&lt;b&gt;Có&lt;/b&gt;" style="edgeLabel;html=1;align=center;verticalAlign=middle;resizable=0;points=[];" vertex="1" connectable="0" parent="ZwuwxxH1zMdvEdTxROpJ-16">
          <mxGeometry x="-0.2928" y="1" relative="1" as="geometry">
            <mxPoint as="offset" />
          </mxGeometry>
        </mxCell>
        <mxCell id="jaMOgLZvB3yP1dYOfS98-20" value="Thông tin &lt;br&gt;cập nhật có hợp lệ hay không?" style="rhombus;whiteSpace=wrap;html=1;fontStyle=1;fontSize=14;" parent="jaMOgLZvB3yP1dYOfS98-2" vertex="1">
          <mxGeometry x="148" y="256.5" width="130" height="130" as="geometry" />
        </mxCell>
        <mxCell id="ZwuwxxH1zMdvEdTxROpJ-13" style="edgeStyle=orthogonalEdgeStyle;rounded=0;orthogonalLoop=1;jettySize=auto;html=1;entryX=0.5;entryY=1;entryDx=0;entryDy=0;" edge="1" parent="jaMOgLZvB3yP1dYOfS98-2" source="ZwuwxxH1zMdvEdTxROpJ-3" target="ZwuwxxH1zMdvEdTxROpJ-10">
          <mxGeometry relative="1" as="geometry" />
        </mxCell>
        <mxCell id="ZwuwxxH1zMdvEdTxROpJ-3" value="hệ thống in ra thông báo&lt;br&gt;&quot;Cập nhật không thành công&quot;" style="rounded=1;whiteSpace=wrap;html=1;strokeWidth=1;fontSize=14;fontStyle=1" vertex="1" parent="jaMOgLZvB3yP1dYOfS98-2">
          <mxGeometry x="333" y="330" width="97" height="90" as="geometry" />
        </mxCell>
        <mxCell id="ZwuwxxH1zMdvEdTxROpJ-14" style="edgeStyle=orthogonalEdgeStyle;rounded=0;orthogonalLoop=1;jettySize=auto;html=1;entryX=1;entryY=0.5;entryDx=0;entryDy=0;" edge="1" parent="jaMOgLZvB3yP1dYOfS98-2" source="ZwuwxxH1zMdvEdTxROpJ-10" target="jaMOgLZvB3yP1dYOfS98-16">
          <mxGeometry relative="1" as="geometry" />
        </mxCell>
        <mxCell id="ZwuwxxH1zMdvEdTxROpJ-10" value="trả số lượng sản phẩm về ban đầu" style="rounded=1;whiteSpace=wrap;html=1;strokeWidth=1;fontSize=14;fontStyle=1" vertex="1" parent="jaMOgLZvB3yP1dYOfS98-2">
          <mxGeometry x="333" y="177" width="97" height="90" as="geometry" />
        </mxCell>
        <mxCell id="ZwuwxxH1zMdvEdTxROpJ-15" value="Cập nhật các sản phẩm với số lượng mới" style="rounded=1;whiteSpace=wrap;html=1;strokeWidth=1;fontSize=14;fontStyle=1" vertex="1" parent="jaMOgLZvB3yP1dYOfS98-2">
          <mxGeometry x="129.01999999999998" y="449" width="167.96" height="61" as="geometry" />
        </mxCell>
        <mxCell id="jaMOgLZvB3yP1dYOfS98-12" value="Khách hàng" style="swimlane;whiteSpace=wrap;html=1;fontSize=14;" parent="1" vertex="1">
          <mxGeometry x="79" y="150" width="371.22" height="643" as="geometry" />
        </mxCell>
        <mxCell id="jaMOgLZvB3yP1dYOfS98-13" value="" style="ellipse;whiteSpace=wrap;html=1;strokeColor=#000000;fillColor=#000000;strokeWidth=1;fontSize=14;fontStyle=1" parent="jaMOgLZvB3yP1dYOfS98-12" vertex="1">
          <mxGeometry x="182" y="40" width="30" height="30" as="geometry" />
        </mxCell>
        <mxCell id="jaMOgLZvB3yP1dYOfS98-14" value="Người dùng truy cập vào trang giỏ hàng" style="rounded=1;whiteSpace=wrap;html=1;strokeWidth=1;fontSize=14;fontStyle=1" parent="jaMOgLZvB3yP1dYOfS98-12" vertex="1">
          <mxGeometry x="52" y="120" width="290" height="50" as="geometry" />
        </mxCell>
        <mxCell id="jaMOgLZvB3yP1dYOfS98-15" style="edgeStyle=orthogonalEdgeStyle;rounded=0;orthogonalLoop=1;jettySize=auto;html=1;strokeWidth=3;fontSize=14;fontStyle=1" parent="jaMOgLZvB3yP1dYOfS98-12" source="jaMOgLZvB3yP1dYOfS98-13" target="jaMOgLZvB3yP1dYOfS98-14" edge="1">
          <mxGeometry relative="1" as="geometry" />
        </mxCell>
        <mxCell id="jaMOgLZvB3yP1dYOfS98-17" value="Người dùng tăng hoặc giảm số lượng tại từng sản phẩm và nhấn vào nút cập nhật giỏ hàng" style="rounded=1;whiteSpace=wrap;html=1;strokeWidth=1;fontSize=14;fontStyle=1" parent="jaMOgLZvB3yP1dYOfS98-12" vertex="1">
          <mxGeometry x="52" y="194" width="290" height="66" as="geometry" />
        </mxCell>
        <mxCell id="jaMOgLZvB3yP1dYOfS98-18" style="edgeStyle=orthogonalEdgeStyle;rounded=0;orthogonalLoop=1;jettySize=auto;html=1;entryX=0;entryY=0.5;entryDx=0;entryDy=0;fontSize=14;" parent="1" source="jaMOgLZvB3yP1dYOfS98-14" target="jaMOgLZvB3yP1dYOfS98-16" edge="1">
          <mxGeometry relative="1" as="geometry" />
        </mxCell>
        <mxCell id="jaMOgLZvB3yP1dYOfS98-19" style="edgeStyle=orthogonalEdgeStyle;rounded=0;orthogonalLoop=1;jettySize=auto;html=1;entryX=1;entryY=0.5;entryDx=0;entryDy=0;fontSize=14;" parent="1" source="jaMOgLZvB3yP1dYOfS98-16" target="jaMOgLZvB3yP1dYOfS98-17" edge="1">
          <mxGeometry relative="1" as="geometry">
            <Array as="points">
              <mxPoint x="646" y="377" />
            </Array>
          </mxGeometry>
        </mxCell>
        <mxCell id="ZwuwxxH1zMdvEdTxROpJ-2" style="edgeStyle=orthogonalEdgeStyle;rounded=0;orthogonalLoop=1;jettySize=auto;html=1;entryX=0;entryY=0.5;entryDx=0;entryDy=0;" edge="1" parent="1" source="jaMOgLZvB3yP1dYOfS98-17" target="jaMOgLZvB3yP1dYOfS98-20">
          <mxGeometry relative="1" as="geometry">
            <Array as="points">
              <mxPoint x="276" y="472" />
            </Array>
          </mxGeometry>
        </mxCell>
        <mxCell id="jaMOgLZvB3yP1dYOfS98-3" value="" style="ellipse;whiteSpace=wrap;html=1;strokeColor=#000000;fillColor=#000000;strokeWidth=1;fontSize=14;fontStyle=1" parent="1" vertex="1">
          <mxGeometry x="648" y="715" width="30" height="30" as="geometry" />
        </mxCell>
        <mxCell id="jaMOgLZvB3yP1dYOfS98-4" value="" style="ellipse;whiteSpace=wrap;html=1;gradientColor=default;fillColor=none;fontSize=14;" parent="1" vertex="1">
          <mxGeometry x="638" y="705" width="50" height="50" as="geometry" />
        </mxCell>
        <mxCell id="ZwuwxxH1zMdvEdTxROpJ-18" style="edgeStyle=orthogonalEdgeStyle;rounded=0;orthogonalLoop=1;jettySize=auto;html=1;entryX=0.5;entryY=0;entryDx=0;entryDy=0;" edge="1" parent="1" source="ZwuwxxH1zMdvEdTxROpJ-15" target="jaMOgLZvB3yP1dYOfS98-4">
          <mxGeometry relative="1" as="geometry" />
        </mxCell>
      </root>
    </mxGraphModel>
  </diagram>
</mxfile>
